<svg width="238" height="63" viewBox="0 0 238 63" fill="none" xmlns="http://www.w3.org/2000/svg">
<path d="M70.2211 37V17.5787H77.2908C79.4577 17.5787 81.1236 17.976 82.2883 18.7705C83.4531 19.5651 84.0354 20.6847 84.0354 22.1293C84.0354 23.1767 83.6788 24.0931 82.9655 24.8786C82.2612 25.6641 81.3583 26.2104 80.2568 26.5174V26.5716C81.6382 26.7431 82.7398 27.2532 83.5614 28.102C84.3921 28.9507 84.8074 29.9845 84.8074 31.2034C84.8074 32.9821 84.1709 34.3951 82.8978 35.4425C81.6247 36.4808 79.8866 37 77.6836 37H70.2211ZM74.5957 20.8021V25.4068H76.5188C77.4217 25.4068 78.1305 25.1901 78.6451 24.7567C79.1688 24.3143 79.4307 23.7094 79.4307 22.9419C79.4307 21.5153 78.3652 20.8021 76.2344 20.8021H74.5957ZM74.5957 28.6572V33.7767H76.9658C77.977 33.7767 78.767 33.5419 79.3359 33.0724C79.9137 32.6029 80.2026 31.9618 80.2026 31.1492C80.2026 30.3727 79.9182 29.7633 79.3494 29.3209C78.7896 28.8785 78.0041 28.6572 76.9928 28.6572H74.5957ZM99.6645 37H88.0172V17.5787H99.2176V21.1406H92.3917V25.461H98.7436V29.0094H92.3917V33.4516H99.6645V37ZM116.472 21.1406H110.933V37H106.545V21.1406H101.032V17.5787H116.472V21.1406ZM134.078 37H129.311L127.93 32.6796H121.023L119.655 37H114.914L121.984 17.5787H127.171L134.078 37ZM126.927 29.3209L124.842 22.7929C124.688 22.3054 124.58 21.723 124.517 21.0458H124.408C124.363 21.6147 124.25 22.179 124.07 22.7388L121.957 29.3209H126.927ZM147.73 21.1406H140.877V25.9079H147.175V29.4563H140.877V37H136.503V17.5787H147.73V21.1406ZM166.772 28.5895C166.772 34.4222 164.055 37.3386 158.619 37.3386C153.346 37.3386 150.71 34.49 150.71 28.7927V17.5787H155.098V28.8469C155.098 31.9889 156.326 33.56 158.782 33.56C161.192 33.56 162.398 32.0431 162.398 29.0094V17.5787H166.772V28.5895ZM188.482 37H184.067L176.063 24.7974C175.594 24.0841 175.268 23.5469 175.088 23.1857H175.034C175.106 23.8719 175.142 24.9193 175.142 26.3278V37H171.011V17.5787H175.724L183.431 29.4021C183.783 29.9348 184.108 30.463 184.406 30.9867H184.46C184.388 30.5353 184.352 29.6459 184.352 28.3187V17.5787H188.482V37ZM192.925 37V17.5787H199.805C206.703 17.5787 210.152 20.7343 210.152 27.0456C210.152 30.0703 209.208 32.4855 207.321 34.2913C205.443 36.0971 202.938 37 199.805 37H192.925ZM197.299 21.1406V33.4516H199.466C201.362 33.4516 202.847 32.8828 203.922 31.7451C205.005 30.6075 205.547 29.059 205.547 27.0998C205.547 25.2488 205.01 23.7952 203.935 22.7388C202.87 21.6734 201.371 21.1406 199.439 21.1406H197.299ZM229.993 37H225.226L223.844 32.6796H216.937L215.569 37H210.829L217.899 17.5787H223.086L229.993 37ZM222.842 29.3209L220.756 22.7929C220.603 22.3054 220.495 21.723 220.431 21.0458H220.323C220.278 21.6147 220.165 22.179 219.984 22.7388L217.872 29.3209H222.842ZM72.9707 50H68.8008V42.998H70.3779V48.7207H72.9707V50ZM80.3682 50H78.6494L78.1514 48.4424H75.6611L75.168 50H73.459L76.0078 42.998H77.8779L80.3682 50ZM77.79 47.2314L77.0381 44.8779C76.9827 44.7021 76.9437 44.4922 76.9209 44.248H76.8818C76.8656 44.4531 76.8249 44.6566 76.7598 44.8584L75.998 47.2314H77.79ZM81.2422 50V42.998H83.791C84.5723 42.998 85.1729 43.1413 85.5928 43.4277C86.0127 43.7142 86.2227 44.1178 86.2227 44.6387C86.2227 45.0163 86.0941 45.3467 85.8369 45.6299C85.583 45.9131 85.2575 46.11 84.8604 46.2207V46.2402C85.3584 46.3021 85.7555 46.486 86.0518 46.792C86.3512 47.098 86.501 47.4707 86.501 47.9102C86.501 48.5514 86.2715 49.0609 85.8125 49.4385C85.3535 49.8128 84.7269 50 83.9326 50H81.2422ZM82.8193 44.1602V45.8203H83.5127C83.8382 45.8203 84.0938 45.7422 84.2793 45.5859C84.4681 45.4264 84.5625 45.2083 84.5625 44.9316C84.5625 44.4173 84.1784 44.1602 83.4102 44.1602H82.8193ZM82.8193 46.9922V48.8379H83.6738C84.0384 48.8379 84.3232 48.7533 84.5283 48.584C84.7367 48.4147 84.8408 48.1836 84.8408 47.8906C84.8408 47.6107 84.7383 47.391 84.5332 47.2314C84.3314 47.0719 84.0482 46.9922 83.6836 46.9922H82.8193ZM87.3359 49.7314V48.1689C87.6191 48.4066 87.9268 48.5856 88.2588 48.7061C88.5908 48.8232 88.9261 48.8818 89.2646 48.8818C89.4632 48.8818 89.6357 48.8639 89.7822 48.8281C89.932 48.7923 90.0557 48.7435 90.1533 48.6816C90.2542 48.6165 90.3291 48.5417 90.3779 48.457C90.4268 48.3691 90.4512 48.2747 90.4512 48.1738C90.4512 48.0371 90.4121 47.915 90.334 47.8076C90.2559 47.7002 90.1484 47.6009 90.0117 47.5098C89.8783 47.4186 89.7188 47.3307 89.5332 47.2461C89.3477 47.1615 89.1475 47.0752 88.9326 46.9873C88.3857 46.7594 87.9772 46.4811 87.707 46.1523C87.4401 45.8236 87.3066 45.4264 87.3066 44.9609C87.3066 44.5964 87.3799 44.2839 87.5264 44.0234C87.6729 43.7598 87.8714 43.5433 88.1221 43.374C88.376 43.2048 88.6689 43.0811 89.001 43.0029C89.333 42.9215 89.6846 42.8809 90.0557 42.8809C90.4202 42.8809 90.7425 42.9036 91.0225 42.9492C91.3057 42.9915 91.5661 43.0583 91.8037 43.1494V44.6094C91.6865 44.528 91.5579 44.4564 91.418 44.3945C91.2812 44.3327 91.1396 44.2822 90.9932 44.2432C90.8467 44.2008 90.7002 44.1699 90.5537 44.1504C90.4105 44.1309 90.2738 44.1211 90.1436 44.1211C89.9645 44.1211 89.8018 44.139 89.6553 44.1748C89.5088 44.2074 89.3851 44.2546 89.2842 44.3164C89.1833 44.3783 89.1051 44.4531 89.0498 44.541C88.9945 44.6257 88.9668 44.7217 88.9668 44.8291C88.9668 44.9463 88.9977 45.0521 89.0596 45.1465C89.1214 45.2376 89.2093 45.3255 89.3232 45.4102C89.4372 45.4915 89.5755 45.5729 89.7383 45.6543C89.901 45.7324 90.085 45.8138 90.29 45.8984C90.57 46.0156 90.8206 46.141 91.042 46.2744C91.2666 46.4046 91.4587 46.5527 91.6182 46.7188C91.7777 46.8848 91.8997 47.0752 91.9844 47.29C92.069 47.5016 92.1113 47.749 92.1113 48.0322C92.1113 48.4229 92.0365 48.7516 91.8867 49.0186C91.7402 49.2822 91.54 49.4971 91.2861 49.6631C91.0322 49.8258 90.736 49.943 90.3975 50.0146C90.0622 50.0863 89.7074 50.1221 89.333 50.1221C88.9489 50.1221 88.5827 50.0895 88.2344 50.0244C87.8893 49.9593 87.5898 49.8617 87.3359 49.7314Z" fill="#F2F2F2"/>
<path fill-rule="evenodd" clip-rule="evenodd" d="M59 1H1V58.7059L0 59.9118V59V1V0H1H59H60V1V59V59.5797L59 58.3913V1ZM41 37L50.1924 47.9243C54.4277 43.1567 57 36.8787 57 30C57 15.4231 45.4484 3.54423 31 3.01818V3H30C15.0883 3 3 15.0883 3 30C3 36.916 5.60031 43.2247 9.8766 48.0017L19 37H41ZM41 43L19 43V42L41 42V43ZM16 47V48L44 48V47L16 47ZM13 53L48 53V52L13 52V53ZM9 58L52 58V57L9 57V58ZM56 63L5 63V62L56 62V63Z" fill="#F2F2F2"/>
</svg>
